<mxfile host="app.diagrams.net" modified="2021-06-19T06:30:16.925Z" agent="5.0 (Macintosh; Intel Mac OS X 10_15_7) AppleWebKit/537.36 (KHTML, like Gecko) Chrome/90.0.4430.212 Safari/537.36" etag="Aq7esflXGJBXgEmwKMl8" version="14.8.0" type="github">
  <diagram id="vSUeARhAGOXKNWG9gzEW" name="Page-1">
    <mxGraphModel dx="946" dy="515" grid="1" gridSize="10" guides="1" tooltips="1" connect="1" arrows="1" fold="1" page="1" pageScale="1" pageWidth="850" pageHeight="1100" math="0" shadow="0">
      <root>
        <mxCell id="0" />
        <mxCell id="1" parent="0" />
        <mxCell id="ZnsT2K7jifWO7TNlgqRY-2" value="" style="outlineConnect=0;dashed=0;verticalLabelPosition=bottom;verticalAlign=top;align=center;html=1;shape=mxgraph.aws3.elastic_load_balancing;fillColor=#F58534;gradientColor=none;" vertex="1" parent="1">
          <mxGeometry x="610" y="230" width="66.5" height="70" as="geometry" />
        </mxCell>
        <mxCell id="ZnsT2K7jifWO7TNlgqRY-4" value="" style="outlineConnect=0;dashed=0;verticalLabelPosition=bottom;verticalAlign=top;align=center;html=1;shape=mxgraph.aws3.elastic_load_balancing;fillColor=#F58534;gradientColor=none;" vertex="1" parent="1">
          <mxGeometry x="460" y="20" width="66.5" height="60" as="geometry" />
        </mxCell>
        <mxCell id="ZnsT2K7jifWO7TNlgqRY-5" value="" style="outlineConnect=0;dashed=0;verticalLabelPosition=bottom;verticalAlign=top;align=center;html=1;shape=mxgraph.aws3.elastic_load_balancing;fillColor=#F58534;gradientColor=none;" vertex="1" parent="1">
          <mxGeometry x="421.75" y="387" width="56.5" height="70" as="geometry" />
        </mxCell>
        <mxCell id="ZnsT2K7jifWO7TNlgqRY-6" value="" style="curved=1;endArrow=classic;html=1;entryX=1;entryY=0.79;entryDx=0;entryDy=0;entryPerimeter=0;" edge="1" parent="1" source="ZnsT2K7jifWO7TNlgqRY-2" target="ZnsT2K7jifWO7TNlgqRY-4">
          <mxGeometry width="50" height="50" relative="1" as="geometry">
            <mxPoint x="590" y="220" as="sourcePoint" />
            <mxPoint x="640" y="170" as="targetPoint" />
            <Array as="points">
              <mxPoint x="640" y="220" />
            </Array>
          </mxGeometry>
        </mxCell>
        <mxCell id="ZnsT2K7jifWO7TNlgqRY-7" value="" style="shape=flexArrow;endArrow=classic;startArrow=classic;html=1;" edge="1" parent="1" target="ZnsT2K7jifWO7TNlgqRY-2">
          <mxGeometry width="100" height="100" relative="1" as="geometry">
            <mxPoint x="520" y="410" as="sourcePoint" />
            <mxPoint x="620" y="310" as="targetPoint" />
            <Array as="points" />
          </mxGeometry>
        </mxCell>
        <mxCell id="ZnsT2K7jifWO7TNlgqRY-9" value="" style="outlineConnect=0;dashed=0;verticalLabelPosition=bottom;verticalAlign=top;align=center;html=1;shape=mxgraph.aws3.auto_scaling;fillColor=#F58534;gradientColor=none;" vertex="1" parent="1">
          <mxGeometry x="410" y="220" width="50" height="46.5" as="geometry" />
        </mxCell>
        <mxCell id="ZnsT2K7jifWO7TNlgqRY-10" value="" style="outlineConnect=0;dashed=0;verticalLabelPosition=bottom;verticalAlign=top;align=center;html=1;shape=mxgraph.aws3.ec2;fillColor=#F58534;gradientColor=none;" vertex="1" parent="1">
          <mxGeometry x="285" y="20" width="76.5" height="70" as="geometry" />
        </mxCell>
        <mxCell id="ZnsT2K7jifWO7TNlgqRY-11" value="" style="outlineConnect=0;dashed=0;verticalLabelPosition=bottom;verticalAlign=top;align=center;html=1;shape=mxgraph.aws3.ec2;fillColor=#F58534;gradientColor=none;" vertex="1" parent="1">
          <mxGeometry x="290" y="390" width="66.5" height="70" as="geometry" />
        </mxCell>
        <mxCell id="ZnsT2K7jifWO7TNlgqRY-12" value="" style="outlineConnect=0;dashed=0;verticalLabelPosition=bottom;verticalAlign=top;align=center;html=1;shape=mxgraph.aws3.rds;fillColor=#2E73B8;gradientColor=none;" vertex="1" parent="1">
          <mxGeometry x="50" y="30" width="62" height="60" as="geometry" />
        </mxCell>
        <mxCell id="ZnsT2K7jifWO7TNlgqRY-13" value="" style="outlineConnect=0;dashed=0;verticalLabelPosition=bottom;verticalAlign=top;align=center;html=1;shape=mxgraph.aws3.rds;fillColor=#2E73B8;gradientColor=none;" vertex="1" parent="1">
          <mxGeometry x="49" y="380" width="62" height="61" as="geometry" />
        </mxCell>
        <mxCell id="ZnsT2K7jifWO7TNlgqRY-14" value="" style="outlineConnect=0;dashed=0;verticalLabelPosition=bottom;verticalAlign=top;align=center;html=1;shape=mxgraph.aws3.efs;fillColor=#E05243;gradientColor=none;" vertex="1" parent="1">
          <mxGeometry x="165" y="130" width="66.5" height="50" as="geometry" />
        </mxCell>
        <mxCell id="ZnsT2K7jifWO7TNlgqRY-15" value="" style="outlineConnect=0;dashed=0;verticalLabelPosition=bottom;verticalAlign=top;align=center;html=1;shape=mxgraph.aws3.efs;fillColor=#E05243;gradientColor=none;" vertex="1" parent="1">
          <mxGeometry x="165" y="390" width="65" height="67" as="geometry" />
        </mxCell>
        <mxCell id="ZnsT2K7jifWO7TNlgqRY-17" value="" style="rounded=0;whiteSpace=wrap;html=1;" vertex="1" parent="1">
          <mxGeometry x="50" y="520" width="710" height="460" as="geometry" />
        </mxCell>
        <mxCell id="ZnsT2K7jifWO7TNlgqRY-19" value="" style="outlineConnect=0;dashed=0;verticalLabelPosition=bottom;verticalAlign=top;align=center;html=1;shape=mxgraph.aws3.elastic_load_balancing;fillColor=#F58534;gradientColor=none;" vertex="1" parent="1">
          <mxGeometry x="570" y="544" width="76.5" height="93" as="geometry" />
        </mxCell>
        <mxCell id="ZnsT2K7jifWO7TNlgqRY-20" value="" style="outlineConnect=0;dashed=0;verticalLabelPosition=bottom;verticalAlign=top;align=center;html=1;shape=mxgraph.aws3.ec2;fillColor=#F58534;gradientColor=none;" vertex="1" parent="1">
          <mxGeometry x="383.5" y="544" width="76.5" height="93" as="geometry" />
        </mxCell>
        <mxCell id="ZnsT2K7jifWO7TNlgqRY-21" value="" style="outlineConnect=0;dashed=0;verticalLabelPosition=bottom;verticalAlign=top;align=center;html=1;shape=mxgraph.aws3.rds;fillColor=#2E73B8;gradientColor=none;" vertex="1" parent="1">
          <mxGeometry x="60" y="556" width="72" height="81" as="geometry" />
        </mxCell>
        <mxCell id="ZnsT2K7jifWO7TNlgqRY-22" value="" style="outlineConnect=0;dashed=0;verticalLabelPosition=bottom;verticalAlign=top;align=center;html=1;shape=mxgraph.aws3.rds;fillColor=#2E73B8;gradientColor=none;" vertex="1" parent="1">
          <mxGeometry x="70" y="840" width="72" height="81" as="geometry" />
        </mxCell>
        <mxCell id="ZnsT2K7jifWO7TNlgqRY-23" value="" style="outlineConnect=0;dashed=0;verticalLabelPosition=bottom;verticalAlign=top;align=center;html=1;shape=mxgraph.aws3.ec2;fillColor=#F58534;gradientColor=none;" vertex="1" parent="1">
          <mxGeometry x="377.5" y="840" width="76.5" height="93" as="geometry" />
        </mxCell>
        <mxCell id="ZnsT2K7jifWO7TNlgqRY-24" value="" style="outlineConnect=0;dashed=0;verticalLabelPosition=bottom;verticalAlign=top;align=center;html=1;shape=mxgraph.aws3.elastic_load_balancing;fillColor=#F58534;gradientColor=none;" vertex="1" parent="1">
          <mxGeometry x="590" y="850" width="76.5" height="93" as="geometry" />
        </mxCell>
        <mxCell id="ZnsT2K7jifWO7TNlgqRY-25" value="" style="outlineConnect=0;dashed=0;verticalLabelPosition=bottom;verticalAlign=top;align=center;html=1;shape=mxgraph.aws3.elastic_load_balancing;fillColor=#F58534;gradientColor=none;" vertex="1" parent="1">
          <mxGeometry x="720" y="690" width="76.5" height="93" as="geometry" />
        </mxCell>
        <mxCell id="ZnsT2K7jifWO7TNlgqRY-26" value="" style="outlineConnect=0;dashed=0;verticalLabelPosition=bottom;verticalAlign=top;align=center;html=1;shape=mxgraph.aws3.auto_scaling;fillColor=#F58534;gradientColor=none;" vertex="1" parent="1">
          <mxGeometry x="454" y="707" width="79.5" height="76.5" as="geometry" />
        </mxCell>
        <mxCell id="ZnsT2K7jifWO7TNlgqRY-27" value="" style="outlineConnect=0;dashed=0;verticalLabelPosition=bottom;verticalAlign=top;align=center;html=1;shape=mxgraph.aws3.efs;fillColor=#E05243;gradientColor=none;" vertex="1" parent="1">
          <mxGeometry x="220" y="704" width="76.5" height="93" as="geometry" />
        </mxCell>
      </root>
    </mxGraphModel>
  </diagram>
</mxfile>
